%TF.GenerationSoftware,KiCad,Pcbnew,8.0.8-8.0.8-0~ubuntu24.04.1*%
%TF.CreationDate,2025-05-21T20:48:50+05:30*%
%TF.ProjectId,2,322e6b69-6361-4645-9f70-636258585858,rev?*%
%TF.SameCoordinates,Original*%
%TF.FileFunction,Legend,Top*%
%TF.FilePolarity,Positive*%
%FSLAX46Y46*%
G04 Gerber Fmt 4.6, Leading zero omitted, Abs format (unit mm)*
G04 Created by KiCad (PCBNEW 8.0.8-8.0.8-0~ubuntu24.04.1) date 2025-05-21 20:48:50*
%MOMM*%
%LPD*%
G01*
G04 APERTURE LIST*
%ADD10C,0.150000*%
%ADD11C,0.100000*%
%ADD12C,0.120000*%
G04 APERTURE END LIST*
D10*
X141761905Y-69414819D02*
X141761905Y-68414819D01*
X142809523Y-69414819D02*
X142476190Y-68938628D01*
X142238095Y-69414819D02*
X142238095Y-68414819D01*
X142238095Y-68414819D02*
X142619047Y-68414819D01*
X142619047Y-68414819D02*
X142714285Y-68462438D01*
X142714285Y-68462438D02*
X142761904Y-68510057D01*
X142761904Y-68510057D02*
X142809523Y-68605295D01*
X142809523Y-68605295D02*
X142809523Y-68748152D01*
X142809523Y-68748152D02*
X142761904Y-68843390D01*
X142761904Y-68843390D02*
X142714285Y-68891009D01*
X142714285Y-68891009D02*
X142619047Y-68938628D01*
X142619047Y-68938628D02*
X142238095Y-68938628D01*
X144476190Y-69414819D02*
X144000000Y-69414819D01*
X144000000Y-69414819D02*
X144000000Y-68414819D01*
X144809524Y-68891009D02*
X145142857Y-68891009D01*
X145285714Y-69414819D02*
X144809524Y-69414819D01*
X144809524Y-69414819D02*
X144809524Y-68414819D01*
X144809524Y-68414819D02*
X145285714Y-68414819D01*
X145714286Y-69414819D02*
X145714286Y-68414819D01*
X145714286Y-68414819D02*
X145952381Y-68414819D01*
X145952381Y-68414819D02*
X146095238Y-68462438D01*
X146095238Y-68462438D02*
X146190476Y-68557676D01*
X146190476Y-68557676D02*
X146238095Y-68652914D01*
X146238095Y-68652914D02*
X146285714Y-68843390D01*
X146285714Y-68843390D02*
X146285714Y-68986247D01*
X146285714Y-68986247D02*
X146238095Y-69176723D01*
X146238095Y-69176723D02*
X146190476Y-69271961D01*
X146190476Y-69271961D02*
X146095238Y-69367200D01*
X146095238Y-69367200D02*
X145952381Y-69414819D01*
X145952381Y-69414819D02*
X145714286Y-69414819D01*
D11*
X141785713Y-62726109D02*
X141785713Y-62226109D01*
X141785713Y-62226109D02*
X141976189Y-62226109D01*
X141976189Y-62226109D02*
X142023808Y-62249919D01*
X142023808Y-62249919D02*
X142047618Y-62273728D01*
X142047618Y-62273728D02*
X142071427Y-62321347D01*
X142071427Y-62321347D02*
X142071427Y-62392776D01*
X142071427Y-62392776D02*
X142047618Y-62440395D01*
X142047618Y-62440395D02*
X142023808Y-62464204D01*
X142023808Y-62464204D02*
X141976189Y-62488014D01*
X141976189Y-62488014D02*
X141785713Y-62488014D01*
X142285713Y-62726109D02*
X142285713Y-62226109D01*
X142285713Y-62464204D02*
X142571427Y-62464204D01*
X142571427Y-62726109D02*
X142571427Y-62226109D01*
X142904761Y-62226109D02*
X142999999Y-62226109D01*
X142999999Y-62226109D02*
X143047618Y-62249919D01*
X143047618Y-62249919D02*
X143095237Y-62297538D01*
X143095237Y-62297538D02*
X143119047Y-62392776D01*
X143119047Y-62392776D02*
X143119047Y-62559442D01*
X143119047Y-62559442D02*
X143095237Y-62654680D01*
X143095237Y-62654680D02*
X143047618Y-62702300D01*
X143047618Y-62702300D02*
X142999999Y-62726109D01*
X142999999Y-62726109D02*
X142904761Y-62726109D01*
X142904761Y-62726109D02*
X142857142Y-62702300D01*
X142857142Y-62702300D02*
X142809523Y-62654680D01*
X142809523Y-62654680D02*
X142785714Y-62559442D01*
X142785714Y-62559442D02*
X142785714Y-62392776D01*
X142785714Y-62392776D02*
X142809523Y-62297538D01*
X142809523Y-62297538D02*
X142857142Y-62249919D01*
X142857142Y-62249919D02*
X142904761Y-62226109D01*
X143261905Y-62226109D02*
X143547619Y-62226109D01*
X143404762Y-62726109D02*
X143404762Y-62226109D01*
X143809523Y-62226109D02*
X143904761Y-62226109D01*
X143904761Y-62226109D02*
X143952380Y-62249919D01*
X143952380Y-62249919D02*
X143999999Y-62297538D01*
X143999999Y-62297538D02*
X144023809Y-62392776D01*
X144023809Y-62392776D02*
X144023809Y-62559442D01*
X144023809Y-62559442D02*
X143999999Y-62654680D01*
X143999999Y-62654680D02*
X143952380Y-62702300D01*
X143952380Y-62702300D02*
X143904761Y-62726109D01*
X143904761Y-62726109D02*
X143809523Y-62726109D01*
X143809523Y-62726109D02*
X143761904Y-62702300D01*
X143761904Y-62702300D02*
X143714285Y-62654680D01*
X143714285Y-62654680D02*
X143690476Y-62559442D01*
X143690476Y-62559442D02*
X143690476Y-62392776D01*
X143690476Y-62392776D02*
X143714285Y-62297538D01*
X143714285Y-62297538D02*
X143761904Y-62249919D01*
X143761904Y-62249919D02*
X143809523Y-62226109D01*
X144238095Y-62726109D02*
X144238095Y-62226109D01*
X144238095Y-62226109D02*
X144357143Y-62226109D01*
X144357143Y-62226109D02*
X144428571Y-62249919D01*
X144428571Y-62249919D02*
X144476190Y-62297538D01*
X144476190Y-62297538D02*
X144500000Y-62345157D01*
X144500000Y-62345157D02*
X144523809Y-62440395D01*
X144523809Y-62440395D02*
X144523809Y-62511823D01*
X144523809Y-62511823D02*
X144500000Y-62607061D01*
X144500000Y-62607061D02*
X144476190Y-62654680D01*
X144476190Y-62654680D02*
X144428571Y-62702300D01*
X144428571Y-62702300D02*
X144357143Y-62726109D01*
X144357143Y-62726109D02*
X144238095Y-62726109D01*
X144738095Y-62726109D02*
X144738095Y-62226109D01*
X145071428Y-62226109D02*
X145166666Y-62226109D01*
X145166666Y-62226109D02*
X145214285Y-62249919D01*
X145214285Y-62249919D02*
X145261904Y-62297538D01*
X145261904Y-62297538D02*
X145285714Y-62392776D01*
X145285714Y-62392776D02*
X145285714Y-62559442D01*
X145285714Y-62559442D02*
X145261904Y-62654680D01*
X145261904Y-62654680D02*
X145214285Y-62702300D01*
X145214285Y-62702300D02*
X145166666Y-62726109D01*
X145166666Y-62726109D02*
X145071428Y-62726109D01*
X145071428Y-62726109D02*
X145023809Y-62702300D01*
X145023809Y-62702300D02*
X144976190Y-62654680D01*
X144976190Y-62654680D02*
X144952381Y-62559442D01*
X144952381Y-62559442D02*
X144952381Y-62392776D01*
X144952381Y-62392776D02*
X144976190Y-62297538D01*
X144976190Y-62297538D02*
X145023809Y-62249919D01*
X145023809Y-62249919D02*
X145071428Y-62226109D01*
X145500000Y-62726109D02*
X145500000Y-62226109D01*
X145500000Y-62226109D02*
X145619048Y-62226109D01*
X145619048Y-62226109D02*
X145690476Y-62249919D01*
X145690476Y-62249919D02*
X145738095Y-62297538D01*
X145738095Y-62297538D02*
X145761905Y-62345157D01*
X145761905Y-62345157D02*
X145785714Y-62440395D01*
X145785714Y-62440395D02*
X145785714Y-62511823D01*
X145785714Y-62511823D02*
X145761905Y-62607061D01*
X145761905Y-62607061D02*
X145738095Y-62654680D01*
X145738095Y-62654680D02*
X145690476Y-62702300D01*
X145690476Y-62702300D02*
X145619048Y-62726109D01*
X145619048Y-62726109D02*
X145500000Y-62726109D01*
X146000000Y-62464204D02*
X146166667Y-62464204D01*
X146238095Y-62726109D02*
X146000000Y-62726109D01*
X146000000Y-62726109D02*
X146000000Y-62226109D01*
X146000000Y-62226109D02*
X146238095Y-62226109D01*
D10*
X147714286Y-74839164D02*
X147285715Y-74839164D01*
X147500000Y-74839164D02*
X147500000Y-74089164D01*
X147500000Y-74089164D02*
X147428572Y-74196307D01*
X147428572Y-74196307D02*
X147357143Y-74267735D01*
X147357143Y-74267735D02*
X147285715Y-74303450D01*
X148178572Y-74089164D02*
X148250001Y-74089164D01*
X148250001Y-74089164D02*
X148321429Y-74124878D01*
X148321429Y-74124878D02*
X148357144Y-74160592D01*
X148357144Y-74160592D02*
X148392858Y-74232021D01*
X148392858Y-74232021D02*
X148428572Y-74374878D01*
X148428572Y-74374878D02*
X148428572Y-74553450D01*
X148428572Y-74553450D02*
X148392858Y-74696307D01*
X148392858Y-74696307D02*
X148357144Y-74767735D01*
X148357144Y-74767735D02*
X148321429Y-74803450D01*
X148321429Y-74803450D02*
X148250001Y-74839164D01*
X148250001Y-74839164D02*
X148178572Y-74839164D01*
X148178572Y-74839164D02*
X148107144Y-74803450D01*
X148107144Y-74803450D02*
X148071429Y-74767735D01*
X148071429Y-74767735D02*
X148035715Y-74696307D01*
X148035715Y-74696307D02*
X148000001Y-74553450D01*
X148000001Y-74553450D02*
X148000001Y-74374878D01*
X148000001Y-74374878D02*
X148035715Y-74232021D01*
X148035715Y-74232021D02*
X148071429Y-74160592D01*
X148071429Y-74160592D02*
X148107144Y-74124878D01*
X148107144Y-74124878D02*
X148178572Y-74089164D01*
X148750001Y-74839164D02*
X148750001Y-74089164D01*
X149178572Y-74839164D02*
X148857144Y-74410592D01*
X149178572Y-74089164D02*
X148750001Y-74517735D01*
X149500001Y-74553450D02*
X150071430Y-74553450D01*
X150428572Y-74839164D02*
X150428572Y-74089164D01*
X150428572Y-74089164D02*
X150714286Y-74089164D01*
X150714286Y-74089164D02*
X150785715Y-74124878D01*
X150785715Y-74124878D02*
X150821429Y-74160592D01*
X150821429Y-74160592D02*
X150857143Y-74232021D01*
X150857143Y-74232021D02*
X150857143Y-74339164D01*
X150857143Y-74339164D02*
X150821429Y-74410592D01*
X150821429Y-74410592D02*
X150785715Y-74446307D01*
X150785715Y-74446307D02*
X150714286Y-74482021D01*
X150714286Y-74482021D02*
X150428572Y-74482021D01*
X151321429Y-74089164D02*
X151464286Y-74089164D01*
X151464286Y-74089164D02*
X151535715Y-74124878D01*
X151535715Y-74124878D02*
X151607143Y-74196307D01*
X151607143Y-74196307D02*
X151642858Y-74339164D01*
X151642858Y-74339164D02*
X151642858Y-74589164D01*
X151642858Y-74589164D02*
X151607143Y-74732021D01*
X151607143Y-74732021D02*
X151535715Y-74803450D01*
X151535715Y-74803450D02*
X151464286Y-74839164D01*
X151464286Y-74839164D02*
X151321429Y-74839164D01*
X151321429Y-74839164D02*
X151250001Y-74803450D01*
X151250001Y-74803450D02*
X151178572Y-74732021D01*
X151178572Y-74732021D02*
X151142858Y-74589164D01*
X151142858Y-74589164D02*
X151142858Y-74339164D01*
X151142858Y-74339164D02*
X151178572Y-74196307D01*
X151178572Y-74196307D02*
X151250001Y-74124878D01*
X151250001Y-74124878D02*
X151321429Y-74089164D01*
X151964286Y-74839164D02*
X151964286Y-74089164D01*
X151964286Y-74089164D02*
X152392857Y-74839164D01*
X152392857Y-74839164D02*
X152392857Y-74089164D01*
X152642857Y-74089164D02*
X153071429Y-74089164D01*
X152857143Y-74839164D02*
X152857143Y-74089164D01*
X153321429Y-74446307D02*
X153571429Y-74446307D01*
X153678572Y-74839164D02*
X153321429Y-74839164D01*
X153321429Y-74839164D02*
X153321429Y-74089164D01*
X153321429Y-74089164D02*
X153678572Y-74089164D01*
X154000000Y-74839164D02*
X154000000Y-74089164D01*
X154000000Y-74089164D02*
X154428571Y-74839164D01*
X154428571Y-74839164D02*
X154428571Y-74089164D01*
X154678571Y-74089164D02*
X155107143Y-74089164D01*
X154892857Y-74839164D02*
X154892857Y-74089164D01*
X155357143Y-74839164D02*
X155357143Y-74089164D01*
X155857143Y-74089164D02*
X156000000Y-74089164D01*
X156000000Y-74089164D02*
X156071429Y-74124878D01*
X156071429Y-74124878D02*
X156142857Y-74196307D01*
X156142857Y-74196307D02*
X156178572Y-74339164D01*
X156178572Y-74339164D02*
X156178572Y-74589164D01*
X156178572Y-74589164D02*
X156142857Y-74732021D01*
X156142857Y-74732021D02*
X156071429Y-74803450D01*
X156071429Y-74803450D02*
X156000000Y-74839164D01*
X156000000Y-74839164D02*
X155857143Y-74839164D01*
X155857143Y-74839164D02*
X155785715Y-74803450D01*
X155785715Y-74803450D02*
X155714286Y-74732021D01*
X155714286Y-74732021D02*
X155678572Y-74589164D01*
X155678572Y-74589164D02*
X155678572Y-74339164D01*
X155678572Y-74339164D02*
X155714286Y-74196307D01*
X155714286Y-74196307D02*
X155785715Y-74124878D01*
X155785715Y-74124878D02*
X155857143Y-74089164D01*
X156500000Y-74839164D02*
X156500000Y-74089164D01*
X156500000Y-74089164D02*
X156750000Y-74624878D01*
X156750000Y-74624878D02*
X157000000Y-74089164D01*
X157000000Y-74089164D02*
X157000000Y-74839164D01*
X157357143Y-74446307D02*
X157607143Y-74446307D01*
X157714286Y-74839164D02*
X157357143Y-74839164D01*
X157357143Y-74839164D02*
X157357143Y-74089164D01*
X157357143Y-74089164D02*
X157714286Y-74089164D01*
X157928571Y-74089164D02*
X158357143Y-74089164D01*
X158142857Y-74839164D02*
X158142857Y-74089164D01*
X158607143Y-74446307D02*
X158857143Y-74446307D01*
X158964286Y-74839164D02*
X158607143Y-74839164D01*
X158607143Y-74839164D02*
X158607143Y-74089164D01*
X158607143Y-74089164D02*
X158964286Y-74089164D01*
X159714285Y-74839164D02*
X159464285Y-74482021D01*
X159285714Y-74839164D02*
X159285714Y-74089164D01*
X159285714Y-74089164D02*
X159571428Y-74089164D01*
X159571428Y-74089164D02*
X159642857Y-74124878D01*
X159642857Y-74124878D02*
X159678571Y-74160592D01*
X159678571Y-74160592D02*
X159714285Y-74232021D01*
X159714285Y-74232021D02*
X159714285Y-74339164D01*
X159714285Y-74339164D02*
X159678571Y-74410592D01*
X159678571Y-74410592D02*
X159642857Y-74446307D01*
X159642857Y-74446307D02*
X159571428Y-74482021D01*
X159571428Y-74482021D02*
X159285714Y-74482021D01*
X164857142Y-54954819D02*
X164380952Y-54954819D01*
X164380952Y-54954819D02*
X164380952Y-53954819D01*
X165190476Y-54431009D02*
X165523809Y-54431009D01*
X165666666Y-54954819D02*
X165190476Y-54954819D01*
X165190476Y-54954819D02*
X165190476Y-53954819D01*
X165190476Y-53954819D02*
X165666666Y-53954819D01*
X166095238Y-54954819D02*
X166095238Y-53954819D01*
X166095238Y-53954819D02*
X166333333Y-53954819D01*
X166333333Y-53954819D02*
X166476190Y-54002438D01*
X166476190Y-54002438D02*
X166571428Y-54097676D01*
X166571428Y-54097676D02*
X166619047Y-54192914D01*
X166619047Y-54192914D02*
X166666666Y-54383390D01*
X166666666Y-54383390D02*
X166666666Y-54526247D01*
X166666666Y-54526247D02*
X166619047Y-54716723D01*
X166619047Y-54716723D02*
X166571428Y-54811961D01*
X166571428Y-54811961D02*
X166476190Y-54907200D01*
X166476190Y-54907200D02*
X166333333Y-54954819D01*
X166333333Y-54954819D02*
X166095238Y-54954819D01*
X3244523Y300180D02*
X2768333Y300180D01*
X2768333Y300180D02*
X2768333Y1300180D01*
X3577857Y300180D02*
X3577857Y1300180D01*
X3577857Y1300180D02*
X3911190Y585895D01*
X3911190Y585895D02*
X4244523Y1300180D01*
X4244523Y1300180D02*
X4244523Y300180D01*
X4625476Y1300180D02*
X5244523Y1300180D01*
X5244523Y1300180D02*
X4911190Y919228D01*
X4911190Y919228D02*
X5054047Y919228D01*
X5054047Y919228D02*
X5149285Y871609D01*
X5149285Y871609D02*
X5196904Y823990D01*
X5196904Y823990D02*
X5244523Y728752D01*
X5244523Y728752D02*
X5244523Y490657D01*
X5244523Y490657D02*
X5196904Y395419D01*
X5196904Y395419D02*
X5149285Y347800D01*
X5149285Y347800D02*
X5054047Y300180D01*
X5054047Y300180D02*
X4768333Y300180D01*
X4768333Y300180D02*
X4673095Y347800D01*
X4673095Y347800D02*
X4625476Y395419D01*
X6149285Y1300180D02*
X5673095Y1300180D01*
X5673095Y1300180D02*
X5625476Y823990D01*
X5625476Y823990D02*
X5673095Y871609D01*
X5673095Y871609D02*
X5768333Y919228D01*
X5768333Y919228D02*
X6006428Y919228D01*
X6006428Y919228D02*
X6101666Y871609D01*
X6101666Y871609D02*
X6149285Y823990D01*
X6149285Y823990D02*
X6196904Y728752D01*
X6196904Y728752D02*
X6196904Y490657D01*
X6196904Y490657D02*
X6149285Y395419D01*
X6149285Y395419D02*
X6101666Y347800D01*
X6101666Y347800D02*
X6006428Y300180D01*
X6006428Y300180D02*
X5768333Y300180D01*
X5768333Y300180D02*
X5673095Y347800D01*
X5673095Y347800D02*
X5625476Y395419D01*
X6768333Y871609D02*
X6673095Y919228D01*
X6673095Y919228D02*
X6625476Y966847D01*
X6625476Y966847D02*
X6577857Y1062085D01*
X6577857Y1062085D02*
X6577857Y1109704D01*
X6577857Y1109704D02*
X6625476Y1204942D01*
X6625476Y1204942D02*
X6673095Y1252561D01*
X6673095Y1252561D02*
X6768333Y1300180D01*
X6768333Y1300180D02*
X6958809Y1300180D01*
X6958809Y1300180D02*
X7054047Y1252561D01*
X7054047Y1252561D02*
X7101666Y1204942D01*
X7101666Y1204942D02*
X7149285Y1109704D01*
X7149285Y1109704D02*
X7149285Y1062085D01*
X7149285Y1062085D02*
X7101666Y966847D01*
X7101666Y966847D02*
X7054047Y919228D01*
X7054047Y919228D02*
X6958809Y871609D01*
X6958809Y871609D02*
X6768333Y871609D01*
X6768333Y871609D02*
X6673095Y823990D01*
X6673095Y823990D02*
X6625476Y776371D01*
X6625476Y776371D02*
X6577857Y681133D01*
X6577857Y681133D02*
X6577857Y490657D01*
X6577857Y490657D02*
X6625476Y395419D01*
X6625476Y395419D02*
X6673095Y347800D01*
X6673095Y347800D02*
X6768333Y300180D01*
X6768333Y300180D02*
X6958809Y300180D01*
X6958809Y300180D02*
X7054047Y347800D01*
X7054047Y347800D02*
X7101666Y395419D01*
X7101666Y395419D02*
X7149285Y490657D01*
X7149285Y490657D02*
X7149285Y681133D01*
X7149285Y681133D02*
X7101666Y776371D01*
X7101666Y776371D02*
X7054047Y823990D01*
X7054047Y823990D02*
X6958809Y871609D01*
X162190476Y-76059819D02*
X162190476Y-75059819D01*
X162190476Y-75059819D02*
X162571428Y-75059819D01*
X162571428Y-75059819D02*
X162666666Y-75107438D01*
X162666666Y-75107438D02*
X162714285Y-75155057D01*
X162714285Y-75155057D02*
X162761904Y-75250295D01*
X162761904Y-75250295D02*
X162761904Y-75393152D01*
X162761904Y-75393152D02*
X162714285Y-75488390D01*
X162714285Y-75488390D02*
X162666666Y-75536009D01*
X162666666Y-75536009D02*
X162571428Y-75583628D01*
X162571428Y-75583628D02*
X162190476Y-75583628D01*
X163380952Y-75059819D02*
X163571428Y-75059819D01*
X163571428Y-75059819D02*
X163666666Y-75107438D01*
X163666666Y-75107438D02*
X163761904Y-75202676D01*
X163761904Y-75202676D02*
X163809523Y-75393152D01*
X163809523Y-75393152D02*
X163809523Y-75726485D01*
X163809523Y-75726485D02*
X163761904Y-75916961D01*
X163761904Y-75916961D02*
X163666666Y-76012200D01*
X163666666Y-76012200D02*
X163571428Y-76059819D01*
X163571428Y-76059819D02*
X163380952Y-76059819D01*
X163380952Y-76059819D02*
X163285714Y-76012200D01*
X163285714Y-76012200D02*
X163190476Y-75916961D01*
X163190476Y-75916961D02*
X163142857Y-75726485D01*
X163142857Y-75726485D02*
X163142857Y-75393152D01*
X163142857Y-75393152D02*
X163190476Y-75202676D01*
X163190476Y-75202676D02*
X163285714Y-75107438D01*
X163285714Y-75107438D02*
X163380952Y-75059819D01*
X164142857Y-75059819D02*
X164380952Y-76059819D01*
X164380952Y-76059819D02*
X164571428Y-75345533D01*
X164571428Y-75345533D02*
X164761904Y-76059819D01*
X164761904Y-76059819D02*
X165000000Y-75059819D01*
X165380952Y-75536009D02*
X165714285Y-75536009D01*
X165857142Y-76059819D02*
X165380952Y-76059819D01*
X165380952Y-76059819D02*
X165380952Y-75059819D01*
X165380952Y-75059819D02*
X165857142Y-75059819D01*
X166857142Y-76059819D02*
X166523809Y-75583628D01*
X166285714Y-76059819D02*
X166285714Y-75059819D01*
X166285714Y-75059819D02*
X166666666Y-75059819D01*
X166666666Y-75059819D02*
X166761904Y-75107438D01*
X166761904Y-75107438D02*
X166809523Y-75155057D01*
X166809523Y-75155057D02*
X166857142Y-75250295D01*
X166857142Y-75250295D02*
X166857142Y-75393152D01*
X166857142Y-75393152D02*
X166809523Y-75488390D01*
X166809523Y-75488390D02*
X166761904Y-75536009D01*
X166761904Y-75536009D02*
X166666666Y-75583628D01*
X166666666Y-75583628D02*
X166285714Y-75583628D01*
X162180057Y-63238094D02*
X162132438Y-63190475D01*
X162132438Y-63190475D02*
X162084819Y-63095237D01*
X162084819Y-63095237D02*
X162084819Y-62857142D01*
X162084819Y-62857142D02*
X162132438Y-62761904D01*
X162132438Y-62761904D02*
X162180057Y-62714285D01*
X162180057Y-62714285D02*
X162275295Y-62666666D01*
X162275295Y-62666666D02*
X162370533Y-62666666D01*
X162370533Y-62666666D02*
X162513390Y-62714285D01*
X162513390Y-62714285D02*
X163084819Y-63285713D01*
X163084819Y-63285713D02*
X163084819Y-62666666D01*
X162180057Y-62285713D02*
X162132438Y-62238094D01*
X162132438Y-62238094D02*
X162084819Y-62142856D01*
X162084819Y-62142856D02*
X162084819Y-61904761D01*
X162084819Y-61904761D02*
X162132438Y-61809523D01*
X162132438Y-61809523D02*
X162180057Y-61761904D01*
X162180057Y-61761904D02*
X162275295Y-61714285D01*
X162275295Y-61714285D02*
X162370533Y-61714285D01*
X162370533Y-61714285D02*
X162513390Y-61761904D01*
X162513390Y-61761904D02*
X163084819Y-62333332D01*
X163084819Y-62333332D02*
X163084819Y-61714285D01*
X162084819Y-61095237D02*
X162084819Y-60999999D01*
X162084819Y-60999999D02*
X162132438Y-60904761D01*
X162132438Y-60904761D02*
X162180057Y-60857142D01*
X162180057Y-60857142D02*
X162275295Y-60809523D01*
X162275295Y-60809523D02*
X162465771Y-60761904D01*
X162465771Y-60761904D02*
X162703866Y-60761904D01*
X162703866Y-60761904D02*
X162894342Y-60809523D01*
X162894342Y-60809523D02*
X162989580Y-60857142D01*
X162989580Y-60857142D02*
X163037200Y-60904761D01*
X163037200Y-60904761D02*
X163084819Y-60999999D01*
X163084819Y-60999999D02*
X163084819Y-61095237D01*
X163084819Y-61095237D02*
X163037200Y-61190475D01*
X163037200Y-61190475D02*
X162989580Y-61238094D01*
X162989580Y-61238094D02*
X162894342Y-61285713D01*
X162894342Y-61285713D02*
X162703866Y-61333332D01*
X162703866Y-61333332D02*
X162465771Y-61333332D01*
X162465771Y-61333332D02*
X162275295Y-61285713D01*
X162275295Y-61285713D02*
X162180057Y-61238094D01*
X162180057Y-61238094D02*
X162132438Y-61190475D01*
X162132438Y-61190475D02*
X162084819Y-61095237D01*
X163084819Y-59761904D02*
X162608628Y-60095237D01*
X163084819Y-60333332D02*
X162084819Y-60333332D01*
X162084819Y-60333332D02*
X162084819Y-59952380D01*
X162084819Y-59952380D02*
X162132438Y-59857142D01*
X162132438Y-59857142D02*
X162180057Y-59809523D01*
X162180057Y-59809523D02*
X162275295Y-59761904D01*
X162275295Y-59761904D02*
X162418152Y-59761904D01*
X162418152Y-59761904D02*
X162513390Y-59809523D01*
X162513390Y-59809523D02*
X162561009Y-59857142D01*
X162561009Y-59857142D02*
X162608628Y-59952380D01*
X162608628Y-59952380D02*
X162608628Y-60333332D01*
X148454819Y-58190476D02*
X148454819Y-58666666D01*
X148454819Y-58666666D02*
X147454819Y-58666666D01*
X148454819Y-57857142D02*
X147454819Y-57857142D01*
X147454819Y-57857142D02*
X148169104Y-57523809D01*
X148169104Y-57523809D02*
X147454819Y-57190476D01*
X147454819Y-57190476D02*
X148454819Y-57190476D01*
X147454819Y-56809523D02*
X147454819Y-56190476D01*
X147454819Y-56190476D02*
X147835771Y-56523809D01*
X147835771Y-56523809D02*
X147835771Y-56380952D01*
X147835771Y-56380952D02*
X147883390Y-56285714D01*
X147883390Y-56285714D02*
X147931009Y-56238095D01*
X147931009Y-56238095D02*
X148026247Y-56190476D01*
X148026247Y-56190476D02*
X148264342Y-56190476D01*
X148264342Y-56190476D02*
X148359580Y-56238095D01*
X148359580Y-56238095D02*
X148407200Y-56285714D01*
X148407200Y-56285714D02*
X148454819Y-56380952D01*
X148454819Y-56380952D02*
X148454819Y-56666666D01*
X148454819Y-56666666D02*
X148407200Y-56761904D01*
X148407200Y-56761904D02*
X148359580Y-56809523D01*
X147454819Y-55285714D02*
X147454819Y-55761904D01*
X147454819Y-55761904D02*
X147931009Y-55809523D01*
X147931009Y-55809523D02*
X147883390Y-55761904D01*
X147883390Y-55761904D02*
X147835771Y-55666666D01*
X147835771Y-55666666D02*
X147835771Y-55428571D01*
X147835771Y-55428571D02*
X147883390Y-55333333D01*
X147883390Y-55333333D02*
X147931009Y-55285714D01*
X147931009Y-55285714D02*
X148026247Y-55238095D01*
X148026247Y-55238095D02*
X148264342Y-55238095D01*
X148264342Y-55238095D02*
X148359580Y-55285714D01*
X148359580Y-55285714D02*
X148407200Y-55333333D01*
X148407200Y-55333333D02*
X148454819Y-55428571D01*
X148454819Y-55428571D02*
X148454819Y-55666666D01*
X148454819Y-55666666D02*
X148407200Y-55761904D01*
X148407200Y-55761904D02*
X148359580Y-55809523D01*
X147883390Y-54666666D02*
X147835771Y-54761904D01*
X147835771Y-54761904D02*
X147788152Y-54809523D01*
X147788152Y-54809523D02*
X147692914Y-54857142D01*
X147692914Y-54857142D02*
X147645295Y-54857142D01*
X147645295Y-54857142D02*
X147550057Y-54809523D01*
X147550057Y-54809523D02*
X147502438Y-54761904D01*
X147502438Y-54761904D02*
X147454819Y-54666666D01*
X147454819Y-54666666D02*
X147454819Y-54476190D01*
X147454819Y-54476190D02*
X147502438Y-54380952D01*
X147502438Y-54380952D02*
X147550057Y-54333333D01*
X147550057Y-54333333D02*
X147645295Y-54285714D01*
X147645295Y-54285714D02*
X147692914Y-54285714D01*
X147692914Y-54285714D02*
X147788152Y-54333333D01*
X147788152Y-54333333D02*
X147835771Y-54380952D01*
X147835771Y-54380952D02*
X147883390Y-54476190D01*
X147883390Y-54476190D02*
X147883390Y-54666666D01*
X147883390Y-54666666D02*
X147931009Y-54761904D01*
X147931009Y-54761904D02*
X147978628Y-54809523D01*
X147978628Y-54809523D02*
X148073866Y-54857142D01*
X148073866Y-54857142D02*
X148264342Y-54857142D01*
X148264342Y-54857142D02*
X148359580Y-54809523D01*
X148359580Y-54809523D02*
X148407200Y-54761904D01*
X148407200Y-54761904D02*
X148454819Y-54666666D01*
X148454819Y-54666666D02*
X148454819Y-54476190D01*
X148454819Y-54476190D02*
X148407200Y-54380952D01*
X148407200Y-54380952D02*
X148359580Y-54333333D01*
X148359580Y-54333333D02*
X148264342Y-54285714D01*
X148264342Y-54285714D02*
X148073866Y-54285714D01*
X148073866Y-54285714D02*
X147978628Y-54333333D01*
X147978628Y-54333333D02*
X147931009Y-54380952D01*
X147931009Y-54380952D02*
X147883390Y-54476190D01*
X153809523Y-63454819D02*
X153238095Y-63454819D01*
X153523809Y-63454819D02*
X153523809Y-62454819D01*
X153523809Y-62454819D02*
X153428571Y-62597676D01*
X153428571Y-62597676D02*
X153333333Y-62692914D01*
X153333333Y-62692914D02*
X153238095Y-62740533D01*
X154428571Y-62454819D02*
X154523809Y-62454819D01*
X154523809Y-62454819D02*
X154619047Y-62502438D01*
X154619047Y-62502438D02*
X154666666Y-62550057D01*
X154666666Y-62550057D02*
X154714285Y-62645295D01*
X154714285Y-62645295D02*
X154761904Y-62835771D01*
X154761904Y-62835771D02*
X154761904Y-63073866D01*
X154761904Y-63073866D02*
X154714285Y-63264342D01*
X154714285Y-63264342D02*
X154666666Y-63359580D01*
X154666666Y-63359580D02*
X154619047Y-63407200D01*
X154619047Y-63407200D02*
X154523809Y-63454819D01*
X154523809Y-63454819D02*
X154428571Y-63454819D01*
X154428571Y-63454819D02*
X154333333Y-63407200D01*
X154333333Y-63407200D02*
X154285714Y-63359580D01*
X154285714Y-63359580D02*
X154238095Y-63264342D01*
X154238095Y-63264342D02*
X154190476Y-63073866D01*
X154190476Y-63073866D02*
X154190476Y-62835771D01*
X154190476Y-62835771D02*
X154238095Y-62645295D01*
X154238095Y-62645295D02*
X154285714Y-62550057D01*
X154285714Y-62550057D02*
X154333333Y-62502438D01*
X154333333Y-62502438D02*
X154428571Y-62454819D01*
X155190476Y-63454819D02*
X155190476Y-62454819D01*
X155761904Y-63454819D02*
X155333333Y-62883390D01*
X155761904Y-62454819D02*
X155190476Y-63026247D01*
X156761904Y-63454819D02*
X156428571Y-62978628D01*
X156190476Y-63454819D02*
X156190476Y-62454819D01*
X156190476Y-62454819D02*
X156571428Y-62454819D01*
X156571428Y-62454819D02*
X156666666Y-62502438D01*
X156666666Y-62502438D02*
X156714285Y-62550057D01*
X156714285Y-62550057D02*
X156761904Y-62645295D01*
X156761904Y-62645295D02*
X156761904Y-62788152D01*
X156761904Y-62788152D02*
X156714285Y-62883390D01*
X156714285Y-62883390D02*
X156666666Y-62931009D01*
X156666666Y-62931009D02*
X156571428Y-62978628D01*
X156571428Y-62978628D02*
X156190476Y-62978628D01*
X152261905Y-68180057D02*
X152309524Y-68132438D01*
X152309524Y-68132438D02*
X152404762Y-68084819D01*
X152404762Y-68084819D02*
X152642857Y-68084819D01*
X152642857Y-68084819D02*
X152738095Y-68132438D01*
X152738095Y-68132438D02*
X152785714Y-68180057D01*
X152785714Y-68180057D02*
X152833333Y-68275295D01*
X152833333Y-68275295D02*
X152833333Y-68370533D01*
X152833333Y-68370533D02*
X152785714Y-68513390D01*
X152785714Y-68513390D02*
X152214286Y-69084819D01*
X152214286Y-69084819D02*
X152833333Y-69084819D01*
X153214286Y-68180057D02*
X153261905Y-68132438D01*
X153261905Y-68132438D02*
X153357143Y-68084819D01*
X153357143Y-68084819D02*
X153595238Y-68084819D01*
X153595238Y-68084819D02*
X153690476Y-68132438D01*
X153690476Y-68132438D02*
X153738095Y-68180057D01*
X153738095Y-68180057D02*
X153785714Y-68275295D01*
X153785714Y-68275295D02*
X153785714Y-68370533D01*
X153785714Y-68370533D02*
X153738095Y-68513390D01*
X153738095Y-68513390D02*
X153166667Y-69084819D01*
X153166667Y-69084819D02*
X153785714Y-69084819D01*
X154404762Y-68084819D02*
X154500000Y-68084819D01*
X154500000Y-68084819D02*
X154595238Y-68132438D01*
X154595238Y-68132438D02*
X154642857Y-68180057D01*
X154642857Y-68180057D02*
X154690476Y-68275295D01*
X154690476Y-68275295D02*
X154738095Y-68465771D01*
X154738095Y-68465771D02*
X154738095Y-68703866D01*
X154738095Y-68703866D02*
X154690476Y-68894342D01*
X154690476Y-68894342D02*
X154642857Y-68989580D01*
X154642857Y-68989580D02*
X154595238Y-69037200D01*
X154595238Y-69037200D02*
X154500000Y-69084819D01*
X154500000Y-69084819D02*
X154404762Y-69084819D01*
X154404762Y-69084819D02*
X154309524Y-69037200D01*
X154309524Y-69037200D02*
X154261905Y-68989580D01*
X154261905Y-68989580D02*
X154214286Y-68894342D01*
X154214286Y-68894342D02*
X154166667Y-68703866D01*
X154166667Y-68703866D02*
X154166667Y-68465771D01*
X154166667Y-68465771D02*
X154214286Y-68275295D01*
X154214286Y-68275295D02*
X154261905Y-68180057D01*
X154261905Y-68180057D02*
X154309524Y-68132438D01*
X154309524Y-68132438D02*
X154404762Y-68084819D01*
X155738095Y-69084819D02*
X155404762Y-68608628D01*
X155166667Y-69084819D02*
X155166667Y-68084819D01*
X155166667Y-68084819D02*
X155547619Y-68084819D01*
X155547619Y-68084819D02*
X155642857Y-68132438D01*
X155642857Y-68132438D02*
X155690476Y-68180057D01*
X155690476Y-68180057D02*
X155738095Y-68275295D01*
X155738095Y-68275295D02*
X155738095Y-68418152D01*
X155738095Y-68418152D02*
X155690476Y-68513390D01*
X155690476Y-68513390D02*
X155642857Y-68561009D01*
X155642857Y-68561009D02*
X155547619Y-68608628D01*
X155547619Y-68608628D02*
X155166667Y-68608628D01*
D12*
%TO.C,IR LED*%
X145560000Y-67236000D02*
X145560000Y-67080000D01*
X145560000Y-64920000D02*
X145560000Y-64764000D01*
X145560000Y-67235516D02*
G75*
G02*
X142328603Y-67080061I-1560000J1235516D01*
G01*
X145040961Y-67080000D02*
G75*
G02*
X142959090Y-67080049I-1040961J1080000D01*
G01*
X142959090Y-64919951D02*
G75*
G02*
X145040961Y-64920000I1040910J-1080049D01*
G01*
X142328603Y-64919939D02*
G75*
G02*
X145560000Y-64764484I1671397J-1080061D01*
G01*
%TO.C,PHOTODIODE*%
X145560000Y-58420000D02*
X145560000Y-58264000D01*
X145560000Y-60736000D02*
X145560000Y-60580000D01*
X142328603Y-58419939D02*
G75*
G02*
X145560000Y-58264484I1671397J-1080061D01*
G01*
X142959090Y-58419951D02*
G75*
G02*
X145040961Y-58420000I1040910J-1080049D01*
G01*
X145040961Y-60580000D02*
G75*
G02*
X142959090Y-60580049I-1040961J1080000D01*
G01*
X145560000Y-60735516D02*
G75*
G02*
X142328603Y-60580061I-1560000J1235516D01*
G01*
%TO.C,10K-PONTENTIOMETER*%
X150230000Y-75380000D02*
X156770000Y-75380000D01*
X150230000Y-78075000D02*
X150230000Y-75380000D01*
X152066000Y-79121000D02*
X154935000Y-79121000D01*
X152380000Y-75380000D02*
X154620000Y-75380000D01*
X152380000Y-79121000D02*
X152380000Y-75380000D01*
X152380000Y-79121000D02*
X154620000Y-79121000D01*
X154620000Y-79121000D02*
X154620000Y-75380000D01*
X156770000Y-78075000D02*
X156770000Y-75380000D01*
%TO.C,LED*%
X166560000Y-50420000D02*
X166560000Y-50264000D01*
X166560000Y-52736000D02*
X166560000Y-52580000D01*
X163328603Y-50419939D02*
G75*
G02*
X166560000Y-50264484I1671397J-1080061D01*
G01*
X163959090Y-50419951D02*
G75*
G02*
X166040961Y-50420000I1040910J-1080049D01*
G01*
X166040961Y-52580000D02*
G75*
G02*
X163959090Y-52580049I-1040961J1080000D01*
G01*
X166560000Y-52735516D02*
G75*
G02*
X163328603Y-52580061I-1560000J1235516D01*
G01*
%TO.C,LM358*%
X2285000Y-245000D02*
X2285000Y-10525000D01*
X2285000Y-10525000D02*
X7585000Y-10525000D01*
X3935000Y-245000D02*
X2285000Y-245000D01*
X7585000Y-245000D02*
X5935000Y-245000D01*
X7585000Y-10525000D02*
X7585000Y-245000D01*
X5935000Y-245000D02*
G75*
G02*
X3935000Y-245000I-1000000J0D01*
G01*
%TO.C,POWER*%
X163170000Y-72005000D02*
X163170000Y-69405000D01*
X165830000Y-69405000D02*
X163170000Y-69405000D01*
X165830000Y-72005000D02*
X163170000Y-72005000D01*
X165830000Y-72005000D02*
X165830000Y-69405000D01*
X165830000Y-73275000D02*
X165830000Y-74605000D01*
X165830000Y-74605000D02*
X164500000Y-74605000D01*
%TO.C,220R*%
X163630000Y-58230000D02*
X163630000Y-64770000D01*
X163630000Y-64770000D02*
X166370000Y-64770000D01*
X165000000Y-57460000D02*
X165000000Y-58230000D01*
X165000000Y-65540000D02*
X165000000Y-64770000D01*
X166370000Y-58230000D02*
X163630000Y-58230000D01*
X166370000Y-64770000D02*
X166370000Y-58230000D01*
%TO.C,LM358*%
X149130000Y-53160000D02*
X149130000Y-54810000D01*
X149130000Y-56810000D02*
X149130000Y-58460000D01*
X149130000Y-58460000D02*
X159410000Y-58460000D01*
X159410000Y-53160000D02*
X149130000Y-53160000D01*
X159410000Y-58460000D02*
X159410000Y-53160000D01*
X149130000Y-54810000D02*
G75*
G02*
X149130000Y-56810000I0J-1000000D01*
G01*
%TO.C,10KR*%
X149960000Y-65500000D02*
X150730000Y-65500000D01*
X150730000Y-64130000D02*
X150730000Y-66870000D01*
X150730000Y-66870000D02*
X157270000Y-66870000D01*
X157270000Y-64130000D02*
X150730000Y-64130000D01*
X157270000Y-66870000D02*
X157270000Y-64130000D01*
X158040000Y-65500000D02*
X157270000Y-65500000D01*
%TO.C,220R*%
X149960000Y-71000000D02*
X150730000Y-71000000D01*
X150730000Y-69630000D02*
X150730000Y-72370000D01*
X150730000Y-72370000D02*
X157270000Y-72370000D01*
X157270000Y-69630000D02*
X150730000Y-69630000D01*
X157270000Y-72370000D02*
X157270000Y-69630000D01*
X158040000Y-71000000D02*
X157270000Y-71000000D01*
%TD*%
M02*
