M48
; DRILL file {KiCad 8.0.8-8.0.8-0~ubuntu24.04.1} date 2025-05-21T20:49:13+0530
; FORMAT={-:-/ absolute / inch / decimal}
; #@! TF.CreationDate,2025-05-21T20:49:13+05:30
; #@! TF.GenerationSoftware,Kicad,Pcbnew,8.0.8-8.0.8-0~ubuntu24.04.1
; #@! TF.FileFunction,Plated,1,2,PTH
FMAT,2
INCH
; #@! TA.AperFunction,Plated,PTH,ComponentDrill
T1C0.0315
; #@! TA.AperFunction,Plated,PTH,ComponentDrill
T2C0.0354
; #@! TA.AperFunction,Plated,PTH,ComponentDrill
T3C0.0394
%
G90
G05
T1
X0.0443Y-0.062
X0.0443Y-0.162
X0.0443Y-0.262
X0.0443Y-0.362
X0.3443Y-0.062
X0.3443Y-0.162
X0.3443Y-0.262
X0.3443Y-0.362
X5.863Y-2.5787
X5.863Y-2.7953
X5.9236Y-2.0472
X5.9236Y-2.3472
X6.0236Y-2.0472
X6.0236Y-2.3472
X6.1236Y-2.0472
X6.1236Y-2.3472
X6.2236Y-2.0472
X6.2236Y-2.3472
X6.263Y-2.5787
X6.263Y-2.7953
X6.4961Y-2.2213
X6.4961Y-2.6213
T2
X5.6193Y-2.3425
X5.6193Y-2.5984
X5.7193Y-2.3425
X5.7193Y-2.5984
X5.9449Y-3.1102
X6.0433Y-3.0118
X6.1417Y-3.1102
X6.4461Y-2.0276
X6.5461Y-2.0276
T3
X6.4764Y-2.7848
X6.4764Y-2.8848
M30
